<svg id="visual" viewBox="0 0 960 540" width="960" height="540" xmlns="http://www.w3.org/2000/svg" xmlns:xlink="http://www.w3.org/1999/xlink" version="1.1"><g stroke-width="3" stroke-linejoin="bevel"><path d="M500 295L325 298L472 410Z" fill="#5d4d6a" stroke="#1A1A1A"></path><path d="M325 298L305 392L472 410Z" fill="#645473" stroke="#1A1A1A"></path><path d="M305 392L459 540L472 410Z" fill="#645473" stroke="#1A1A1A"></path><path d="M656 395L621 293L500 295Z" fill="#645473" stroke="#1A1A1A"></path><path d="M451 127L307 153L325 298Z" fill="#705e80" stroke="#1A1A1A"></path><path d="M164 273L186 409L305 392Z" fill="#746285" stroke="#1A1A1A"></path><path d="M500 295L451 127L325 298Z" fill="#806c92" stroke="#1A1A1A"></path><path d="M656 395L500 295L472 410Z" fill="#746285" stroke="#1A1A1A"></path><path d="M500 295L660 141L451 127Z" fill="#645473" stroke="#1A1A1A"></path><path d="M164 273L305 392L325 298Z" fill="#685878" stroke="#1A1A1A"></path><path d="M305 392L290 540L459 540Z" fill="#786589" stroke="#1A1A1A"></path><path d="M186 409L290 540L305 392Z" fill="#7c698e" stroke="#1A1A1A"></path><path d="M660 540L656 395L472 410Z" fill="#7c698e" stroke="#1A1A1A"></path><path d="M307 153L164 273L325 298Z" fill="#705e80" stroke="#1A1A1A"></path><path d="M763 292L660 141L621 293Z" fill="#61516f" stroke="#1A1A1A"></path><path d="M621 293L660 141L500 295Z" fill="#685878" stroke="#1A1A1A"></path><path d="M459 540L660 540L472 410Z" fill="#5d4d6a" stroke="#1A1A1A"></path><path d="M656 395L763 292L621 293Z" fill="#786589" stroke="#1A1A1A"></path><path d="M0 401L160 540L186 409Z" fill="#705e80" stroke="#1A1A1A"></path><path d="M186 409L160 540L290 540Z" fill="#685878" stroke="#1A1A1A"></path><path d="M660 141L498 0L451 127Z" fill="#705e80" stroke="#1A1A1A"></path><path d="M451 127L310 0L307 153Z" fill="#806c92" stroke="#1A1A1A"></path><path d="M498 0L310 0L451 127Z" fill="#594a66" stroke="#1A1A1A"></path><path d="M307 153L146 107L164 273Z" fill="#746285" stroke="#1A1A1A"></path><path d="M192 0L146 107L307 153Z" fill="#6c5b7c" stroke="#1A1A1A"></path><path d="M164 273L0 401L186 409Z" fill="#6c5b7c" stroke="#1A1A1A"></path><path d="M789 419L763 292L656 395Z" fill="#746285" stroke="#1A1A1A"></path><path d="M660 540L789 419L656 395Z" fill="#61516f" stroke="#1A1A1A"></path><path d="M826 0L623 0L660 141Z" fill="#7c698e" stroke="#1A1A1A"></path><path d="M660 141L623 0L498 0Z" fill="#5d4d6a" stroke="#1A1A1A"></path><path d="M310 0L192 0L307 153Z" fill="#594a66" stroke="#1A1A1A"></path><path d="M0 118L164 273L146 107Z" fill="#7c698e" stroke="#1A1A1A"></path><path d="M0 118L0 300L164 273Z" fill="#594a66" stroke="#1A1A1A"></path><path d="M960 301L794 169L763 292Z" fill="#6c5b7c" stroke="#1A1A1A"></path><path d="M763 292L794 169L660 141Z" fill="#645473" stroke="#1A1A1A"></path><path d="M0 300L0 401L164 273Z" fill="#5d4d6a" stroke="#1A1A1A"></path><path d="M660 540L803 540L789 419Z" fill="#594a66" stroke="#1A1A1A"></path><path d="M960 109L826 0L794 169Z" fill="#7c698e" stroke="#1A1A1A"></path><path d="M0 401L0 540L160 540Z" fill="#7c698e" stroke="#1A1A1A"></path><path d="M0 0L0 118L146 107Z" fill="#6c5b7c" stroke="#1A1A1A"></path><path d="M960 301L763 292L789 419Z" fill="#7c698e" stroke="#1A1A1A"></path><path d="M794 169L826 0L660 141Z" fill="#5d4d6a" stroke="#1A1A1A"></path><path d="M192 0L0 0L146 107Z" fill="#6c5b7c" stroke="#1A1A1A"></path><path d="M960 379L960 301L789 419Z" fill="#806c92" stroke="#1A1A1A"></path><path d="M960 540L960 379L789 419Z" fill="#806c92" stroke="#1A1A1A"></path><path d="M803 540L960 540L789 419Z" fill="#645473" stroke="#1A1A1A"></path><path d="M960 301L960 109L794 169Z" fill="#645473" stroke="#1A1A1A"></path><path d="M960 109L960 0L826 0Z" fill="#705e80" stroke="#1A1A1A"></path></g></svg>