<svg width="672" height="310" viewBox="0 0 672 310" fill="none" xmlns="http://www.w3.org/2000/svg">
<path d="M179.828 118.149C171.8 131.91 157.178 148.024 121.052 153.67C111.018 155.317 97.8288 153.552 94.3882 151.788C90.661 149.789 91.5211 146.73 92.3813 144.143C96.9686 127.205 102.99 110.621 109.584 93.566C111.304 89.0964 119.045 86.9793 120.479 85.0973C122.199 82.9802 103.85 86.0383 97.5421 86.744C98.1155 79.9221 107.29 70.7477 116.465 68.16C130.801 64.0433 155.458 62.6318 169.22 67.5719C198.465 78.1577 188.143 103.681 179.828 118.149V118.149ZM158.612 98.3885C159.472 94.7422 158.612 80.3925 142.269 84.3916C131.374 101.329 127.36 118.384 123.059 136.262C129.654 136.38 133.381 133.91 136.535 132.028C152.017 122.265 156.891 108.621 158.612 98.3885V98.3885ZM278.586 65.3371C269.412 93.2132 261.384 122.971 265.398 150.612C260.237 153.552 235.58 156.493 233.573 153.2C231.566 149.789 232.426 142.026 234.433 135.321C225.831 135.204 216.083 136.262 209.202 137.791C206.335 140.614 203.181 146.613 203.468 151.2C194.293 153.67 177.95 157.316 172.503 155.317C168.776 154.023 173.363 146.142 175.943 141.673C184.545 125.206 197.16 107.092 210.062 90.9784C211.209 89.5669 225.545 85.8031 225.545 84.3916C224.971 82.0392 210.349 84.1564 197.16 86.2735C197.734 82.9802 206.335 73.5705 212.069 71.4534C223.251 67.4543 257.943 63.9257 278.586 65.3371V65.3371ZM243.321 89.3317H241.887C230.705 99.447 220.957 111.797 216.083 122.265C220.67 121.56 230.419 120.854 235.006 120.619C237.873 110.739 240.74 98.9766 243.321 89.3317ZM401.715 63.6904C381.358 79.6868 364.155 129.793 360.141 147.554C355.841 151.906 338.925 155.317 328.316 154.258C320.002 142.614 315.414 124.147 312.261 111.68L307.96 111.915C303.659 124.383 296.491 136.85 297.925 149.671C291.044 153.317 266.1 157.316 266.387 153.435C267.534 128.617 284.45 96.1537 294.484 74.2763C296.778 69.6891 329.463 65.4547 334.624 67.4543C331.47 81.6864 335.484 95.2127 340.645 107.916C343.512 108.269 344.086 107.916 345.519 107.445C352.4 94.0365 355.554 80.0397 366.449 67.4543C374.19 64.8666 389.673 63.2199 401.715 63.6904V63.6904ZM463.773 80.863C428.795 88.8612 399.263 107.68 404.998 129.911C405.858 132.969 410.732 136.497 419.046 138.027C428.221 139.791 443.13 136.38 453.452 133.322C456.319 137.321 453.452 148.377 441.697 152.729C431.948 156.258 412.739 157.081 401.844 153.435C369.445 142.731 374.033 116.267 388.082 101.094C405.284 82.2745 440.263 66.0428 461.193 63.1023C463.773 64.3962 474.382 78.393 463.773 80.863V80.863ZM561.958 63.2199C562.818 66.2781 556.51 75.923 547.336 77.5696C539.881 78.8635 526.979 78.2754 517.804 79.922C513.504 83.6859 507.196 92.8603 506.049 99.6823C514.937 99.0942 528.413 96.8594 537.587 96.8594C540.455 102.035 530.993 108.386 522.678 110.739C518.091 112.032 506.909 112.856 501.175 113.797C496.588 120.148 493.434 133.086 492.287 137.791C500.028 137.791 513.217 135.909 524.685 134.498C527.553 140.144 519.525 147.201 513.504 149.2C502.322 152.847 479.098 154.964 465.623 153.788C461.609 153.435 457.308 151.435 457.882 149.318C462.469 128.617 471.357 109.562 481.965 90.0374C483.972 86.2736 497.161 84.1564 497.448 81.804C497.734 79.3339 475.371 83.8035 469.923 83.6859C470.21 79.4516 478.238 72.2767 485.693 69.2186C494.294 65.8076 549.343 62.0437 561.958 63.2199V63.2199Z" fill="#6C5B7B"/>
<path d="M167.721 190.845C144.349 196.33 120.23 207.511 129.43 215.844C137.138 222.911 157.775 227.447 151.808 236.835C146.835 245.062 131.419 254.661 111.03 256.349C100.339 257.192 93.1282 249.492 91.6364 245.589C105.56 243.585 118.49 240.315 122.717 234.092C128.933 224.81 101.333 226.075 98.847 214.262C96.1119 201.077 129.927 183.145 161.505 173.441C170.207 175.867 178.413 188.313 167.721 190.845V190.845ZM263.063 174.284C264.058 177.027 260.825 185.887 252.869 187.364C246.404 188.524 234.966 187.259 227.01 188.735C213.335 213.84 206.621 229.662 201.897 257.509C194.189 258.986 174.049 254.872 175.292 250.653C180.265 232.51 186.978 215.422 197.919 197.807C200.156 194.22 211.843 192.322 209.605 190.423C207.367 188.419 181.757 192.533 172.806 193.587C172.806 188.735 177.281 183.145 183.497 180.508C188.719 178.293 216.318 175.867 228.253 175.234C233.475 175.023 256.598 173.651 263.063 174.284V174.284ZM345.476 174.706C332.795 196.646 310.914 232.193 313.152 253.712C303.952 253.606 291.769 253.712 287.293 250.336C278.094 252.551 266.159 254.133 259.197 252.657C249.748 250.547 242.289 247.172 242.538 237.151C243.035 219.219 259.445 193.798 268.645 179.136C275.856 179.242 288.785 180.191 295.25 183.672C286.547 194.009 281.823 201.498 277.845 209.831C269.391 227.869 267.402 237.467 274.613 239.366C278.094 240.315 283.812 239.261 289.78 237.573C295.25 216.371 306.936 194.537 317.379 176.71C323.844 175.023 338.514 172.702 345.476 174.706V174.706ZM402.527 223.017C395.565 235.358 382.884 249.809 351.555 254.872C342.853 256.349 331.415 254.766 328.431 253.184C325.199 251.391 325.945 248.648 326.691 246.328C330.669 231.139 335.891 216.266 341.609 200.971C343.101 196.963 349.815 195.064 351.058 193.376C352.55 191.478 336.637 194.22 331.166 194.853C331.664 188.735 339.62 180.508 347.577 178.187C360.009 174.495 381.392 173.23 393.327 177.66C418.689 187.153 409.737 210.042 402.527 223.017V223.017ZM384.127 205.296C384.873 202.026 384.127 189.157 369.955 192.744C360.506 207.933 357.025 223.228 353.296 239.261C359.014 239.366 362.247 237.151 364.982 235.463C378.409 226.708 382.635 214.473 384.127 205.296V205.296ZM494.885 175.128C496.874 175.339 493.642 185.887 485.934 189.368C482.702 190.845 471.761 189.579 465.794 191.056C460.324 200.127 450.875 223.755 447.394 239.683C457.34 238.733 465.794 237.889 469.026 237.362C471.513 242.425 465.794 248.754 461.07 250.547C452.865 253.817 417.06 257.087 406.12 256.77C398.412 256.454 401.147 250.758 405.622 243.163C407.612 243.163 414.822 242.636 423.525 241.898C425.514 226.181 433.222 215.422 439.438 199.494C440.184 197.174 452.119 194.642 450.627 192.427C449.384 190.528 424.022 193.904 417.06 194.959C416.065 192.427 419.049 184.094 430.487 180.824C440.93 177.765 476.983 174.917 494.885 175.128V175.128ZM555.666 181.246C569.839 201.815 556.412 225.654 537.266 241.792C530.802 247.383 520.856 253.606 504.197 253.606C495.494 253.606 487.041 250.653 484.554 247.805C473.862 235.78 478.835 218.797 486.295 205.823C491.267 196.752 499.473 188.102 510.662 180.191C516.38 176.394 526.077 173.757 536.023 174.073C545.223 174.39 553.428 177.765 555.666 181.246V181.246ZM536.272 209.515C538.012 204.03 538.51 195.275 533.288 192.111C531.548 190.95 526.326 191.689 524.337 193.165C507.678 205.718 500.219 221.645 504.694 236.518C505.44 238.944 509.667 238.628 511.905 237.573C523.094 232.404 533.288 219.641 536.272 209.515Z" fill="#6C5B7B"/>
</svg>
